<?xml version="1.0" encoding="UTF-8" standalone="no"?>
<!-- Created with Inkscape (http://www.inkscape.org/) -->

<svg
   width="130.11501mm"
   height="130.11501mm"
   viewBox="0 0 130.11501 130.11501"
   version="1.1"
   id="svg1"
   inkscape:version="1.3 (0e150ed6c4, 2023-07-21)"
   sodipodi:docname="mkspeedLogoWIP.svg"
   xmlns:inkscape="http://www.inkscape.org/namespaces/inkscape"
   xmlns:sodipodi="http://sodipodi.sourceforge.net/DTD/sodipodi-0.dtd"
   xmlns="http://www.w3.org/2000/svg"
   xmlns:svg="http://www.w3.org/2000/svg">
  <sodipodi:namedview
     id="namedview1"
     pagecolor="#ffffff"
     bordercolor="#000000"
     borderopacity="0.25"
     inkscape:showpageshadow="2"
     inkscape:pageopacity="0.0"
     inkscape:pagecheckerboard="true"
     inkscape:deskcolor="#d1d1d1"
     inkscape:document-units="mm"
     inkscape:zoom="1.4142136"
     inkscape:cx="50.558134"
     inkscape:cy="213.8998"
     inkscape:window-width="2560"
     inkscape:window-height="1417"
     inkscape:window-x="1912"
     inkscape:window-y="-8"
     inkscape:window-maximized="1"
     inkscape:current-layer="layer1"
     showgrid="false" />
  <defs
     id="defs1">
    <inkscape:path-effect
       effect="bspline"
       id="path-effect27"
       is_visible="true"
       lpeversion="1.3"
       weight="33.333333"
       steps="2"
       helper_size="0"
       apply_no_weight="true"
       apply_with_weight="true"
       only_selected="false"
       uniform="false" />
    <inkscape:path-effect
       effect="bspline"
       id="path-effect25"
       is_visible="true"
       lpeversion="1.3"
       weight="33.333333"
       steps="2"
       helper_size="0"
       apply_no_weight="true"
       apply_with_weight="true"
       only_selected="false"
       uniform="false" />
    <inkscape:path-effect
       effect="bspline"
       id="path-effect23"
       is_visible="true"
       lpeversion="1.3"
       weight="33.333333"
       steps="2"
       helper_size="0"
       apply_no_weight="true"
       apply_with_weight="true"
       only_selected="false"
       uniform="false" />
    <inkscape:path-effect
       effect="bspline"
       id="path-effect22"
       is_visible="true"
       lpeversion="1.3"
       weight="33.333333"
       steps="2"
       helper_size="0"
       apply_no_weight="true"
       apply_with_weight="true"
       only_selected="false"
       uniform="false" />
    <inkscape:path-effect
       effect="bspline"
       id="path-effect21"
       is_visible="true"
       lpeversion="1.3"
       weight="33.333333"
       steps="2"
       helper_size="0"
       apply_no_weight="true"
       apply_with_weight="true"
       only_selected="false"
       uniform="false" />
    <inkscape:path-effect
       effect="spiro"
       id="path-effect16"
       is_visible="true"
       lpeversion="1" />
    <inkscape:path-effect
       effect="bspline"
       id="path-effect15"
       is_visible="true"
       lpeversion="1.3"
       weight="33.333333"
       steps="2"
       helper_size="0"
       apply_no_weight="true"
       apply_with_weight="true"
       only_selected="false"
       uniform="false" />
    <inkscape:path-effect
       effect="spiro"
       id="path-effect6"
       is_visible="true"
       lpeversion="1" />
    <inkscape:path-effect
       effect="powerstroke"
       id="path-effect4"
       is_visible="true"
       lpeversion="1.3"
       scale_width="1"
       interpolator_type="CubicBezierJohan"
       interpolator_beta="0.2"
       start_linecap_type="zerowidth"
       end_linecap_type="zerowidth"
       offset_points="0,4.9921385"
       linejoin_type="extrp_arc"
       miter_limit="4"
       not_jump="false"
       sort_points="true"
       message="&lt;b&gt;Ctrl + click&lt;/b&gt; on existing node and move it" />
    <rect
       x="103.88593"
       y="552.06641"
       width="96.528015"
       height="14.429971"
       id="rect3" />
    <rect
       x="110.78102"
       y="560.34052"
       width="350.27026"
       height="182.48988"
       id="rect2" />
    <inkscape:path-effect
       effect="fill_between_many"
       method="bsplinespiro"
       autoreverse="false"
       close="false"
       join="false"
       linkedpaths="#path4,0,1"
       id="path-effect5" />
  </defs>
  <g
     inkscape:label="Outer circle"
     inkscape:groupmode="layer"
     id="layer1"
     style="display:inline">
    <circle
       style="display:inline;fill:#ffffff;fill-opacity:1;stroke:#000000;stroke-width:3.005;stroke-dasharray:none;stroke-opacity:1;opacity:1"
       id="path1"
       cx="65.115173"
       cy="65.115181"
       r="63.497337"
       inkscape:label="OuterBlackCircle" />
    <path
       style="font-weight:bold;font-size:14.1111px;-inkscape-font-specification:sans-serif;letter-spacing:2.11667px;display:inline;fill:#000000;fill-opacity:1;stroke:#000000;stroke-width:0.728402;stroke-dasharray:none;stroke-opacity:1"
       d="M 2.1961627,75.226615 1.9517301,72.528333 9.1447197,67.47021 9.1396297,67.414 q -0.7141851,0.09304 -1.4283702,0.186069 -0.7129121,0.107088 -1.4270972,0.200123 l -4.7219943,0.427757 -0.1718667,-1.89723 10.0342377,-0.908984 0.243159,2.684229 -7.1239941,5.037703 0.00382,0.04216 q 0.686078,-0.09049 1.372156,-0.180977 0.686078,-0.09049 1.3874827,-0.168196 l 4.7501014,-0.430303 0.17314,1.911283 z m 7.5606106,5.919153 4.5710597,0.858813 0.64307,2.208385 -6.842107,-1.490849 -3.7664475,1.096771 -0.591783,-2.032255 3.6987056,-1.077046 5.0398149,-4.950806 0.647016,2.221933 z m 0.8951987,16.990673 -1.242399,-2.407679 4.759172,-7.394186 -0.02588,-0.05016 q -0.626599,0.355092 -1.253197,0.710184 -0.620127,0.367632 -1.246726,0.722724 l -4.2134389,2.174198 -0.8735616,-1.6929 8.9535585,-4.62017 1.235928,2.39514 -4.702943,7.349292 0.01941,0.03762 q 0.601518,-0.342151 1.203036,-0.684301 0.601518,-0.342151 1.222048,-0.678232 l 4.238519,-2.18714 0.880032,1.70544 z m 6.483861,8.680789 1.410707,-2.07437 -2.297626,-2.86035 -2.329758,0.93022 -1.440435,-1.79322 10.114912,-3.563803 1.63485,2.035253 -5.652215,9.11949 z m 2.489748,-3.59272 1.366703,-2.03901 q 0.142838,-0.20524 0.358177,-0.52301 0.21534,-0.31778 0.44168,-0.64439 0.226341,-0.326609 0.402183,-0.558356 -0.264212,0.121733 -0.673786,0.287832 -0.389736,0.168263 -0.75747,0.318854 -0.347894,0.15275 -0.504258,0.20595 l -2.276915,0.90588 z m 3.812463,-7.804578 q 0.374047,-0.300459 0.726809,-0.221824 0.352762,0.07863 0.600199,0.386673 0.247437,0.308038 0.248155,0.669458 0.0096,0.372421 -0.364491,0.67288 -0.363045,0.291622 -0.724644,0.201986 -0.352763,-0.07863 -0.600199,-0.386674 -0.247437,-0.308038 -0.248156,-0.669458 -7.18e-4,-0.36142 0.362327,-0.653041 z m 1.740894,2.167269 q 0.374046,-0.300458 0.726809,-0.221823 0.352762,0.07863 0.609036,0.397674 0.247437,0.308039 0.248155,0.669458 0.0096,0.372422 -0.364491,0.67288 -0.363045,0.291622 -0.724644,0.201986 -0.352763,-0.07864 -0.600199,-0.386673 -0.256274,-0.31904 -0.256993,-0.68046 -7.18e-4,-0.36142 0.362327,-0.653042 z m 2.18905,15.184809 q -0.886789,1.00533 -2.14905,0.96444 -1.242345,-0.0421 -2.575733,-1.2183 -1.195815,-1.05481 -1.736264,-2.34063 l 1.316181,-1.49213 q 0.334343,0.70888 0.728437,1.41402 0.414011,0.70388 0.985463,1.20795 0.592617,0.52274 1.03204,0.51521 0.45934,-0.009 0.767382,-0.35801 0.252035,-0.28572 0.228326,-0.66415 -0.01313,-0.36909 -0.191828,-0.82778 -0.169367,-0.46927 -0.415307,-1.04372 -0.152545,-0.36036 -0.310082,-0.80038 -0.148202,-0.45061 -0.209897,-0.95662 -0.04178,-0.50726 0.105032,-1.03634 0.14681,-0.52907 0.604206,-1.04761 0.896123,-1.01591 2.078717,-0.97003 1.191928,0.0353 2.377161,1.08077 0.592617,0.52274 1.000389,1.12704 0.407772,0.60431 0.776358,1.38102 l -1.620025,0.79134 q -0.331847,-0.66905 -0.641881,-1.14951 -0.310035,-0.48045 -0.743915,-0.86317 -0.455045,-0.40139 -0.885133,-0.40444 -0.430089,-0.003 -0.728797,0.33559 -0.354715,0.40214 -0.200274,0.95233 0.154442,0.55019 0.564758,1.51424 0.339334,0.78855 0.480097,1.43958 0.151346,0.66035 0.01886,1.25851 -0.132484,0.59816 -0.655223,1.19078 z m 8.37343,8.76722 -1.824008,-1.10145 2.246677,-3.7205 -3.418504,-2.06431 -2.246677,3.72049 -1.824007,-1.10145 5.208205,-8.62478 1.824007,1.10145 -2.042433,3.38227 3.418504,2.06432 2.042433,-3.38227 1.824008,1.10145 z m 10.036245,4.07309 0.128871,-2.50529 -3.448662,-1.25199 -1.508336,2.0045 -2.162045,-0.78489 6.795129,-8.29689 2.453855,0.89083 -0.09677,10.72862 z m 0.262909,-4.36318 0.109609,-2.45224 q 0.01554,-0.24956 0.03463,-0.63295 0.01909,-0.38339 0.04299,-0.78004 0.0239,-0.39666 0.05389,-0.68602 -0.162627,0.24121 -0.426463,0.59579 -0.245757,0.34614 -0.481883,0.66575 -0.218047,0.31116 -0.324072,0.4378 l -1.47581,1.95626 z m 9.431157,6.58446 -1.354179,-8.15488 -0.05594,-0.008 q -0.02356,0.28159 -0.07069,0.84477 -0.04713,0.56318 -0.105516,1.21027 -0.05839,0.6471 -0.125977,1.15058 l -0.623302,4.64324 -1.888063,-0.25345 1.340476,-9.98576 2.881044,0.38675 1.338505,7.95345 0.04196,0.006 3.528502,-7.30011 2.881044,0.38675 -1.340476,9.98576 -1.971977,-0.26472 0.634567,-4.72715 q 0.06383,-0.47551 0.160424,-1.089 0.110578,-0.61162 0.197783,-1.15518 0.103068,-0.55567 0.154602,-0.83351 l -0.05594,-0.008 -3.622836,7.47254 z m 20.030631,0.004 -2.697108,0.25707 -5.09175,-7.16923 -0.05619,0.005 q 0.09638,0.71374 0.192756,1.42748 0.110425,0.71241 0.206803,1.42615 l 0.449864,4.71994 -1.896404,0.18075 -0.955962,-10.02988 2.683061,-0.25572 5.071008,7.10032 0.04214,-0.004 q -0.0937,-0.68565 -0.187401,-1.3713 -0.0937,-0.68564 -0.174691,-1.38668 l -0.452543,-4.74803 1.910452,-0.18209 z"
       id="text7"
       inkscape:transform-center-x="-0.16740948"
       inkscape:transform-center-y="47.164825"
       aria-label="NYNÄSHAMN"
       inkscape:label="nynäshamnText"
       transform="matrix(0.73764024,-0.6159726,0.6159726,0.73764024,-23.354444,57.473239)" />
    <path
       style="font-size:14.1111px;-inkscape-font-specification:sans-serif;letter-spacing:2.11667px;display:inline;fill:#000000;fill-opacity:1;stroke:#000000;stroke-width:0.693355;stroke-dasharray:none;stroke-opacity:1"
       d="m 112.15203,70.800171 9.19891,-2.099584 0.008,-0.05593 q -0.43917,-0.01681 -1.18407,-0.08929 -0.73092,-0.07059 -1.52796,-0.178625 l -6.05474,-0.820678 0.15731,-1.160608 9.98403,1.353266 -0.25208,1.85977 -8.59716,1.967543 -0.008,0.05593 7.75564,4.241013 -0.25018,1.845787 -9.98403,-1.353266 0.16868,-1.244508 6.13864,0.832051 q 0.72713,0.09856 1.43649,0.223185 0.70746,0.138612 1.15113,0.227229 l 0.008,-0.05593 -8.28843,-4.512592 z m -1.57274,10.102122 q 0.48977,0.180899 0.60032,0.492503 0.11055,0.311605 -0.0117,0.642531 -0.12223,0.330926 -0.41368,0.509092 -0.29145,0.178166 -0.78122,-0.0027 -0.47653,-0.17601 -0.59543,-0.505741 -0.1189,-0.32973 0.003,-0.660656 0.12223,-0.330926 0.42203,-0.490966 0.29979,-0.16004 0.77633,0.01597 z m -6.80399,11.885531 0.75632,-1.290472 5.95662,-0.647003 -0.25829,-1.345371 -3.37227,-1.976437 0.64217,-1.095684 8.69242,5.094498 -0.64216,1.095684 -4.28534,-2.511573 q 0.19987,0.607823 0.3926,1.22782 0.19274,0.619998 0.38547,1.239995 l 1.25256,3.890826 -0.74919,1.278298 -1.76695,-5.664349 z m -1.49257,2.877343 q 0.39716,0.338916 0.39329,0.669527 -0.004,0.330611 -0.23287,0.598962 -0.229,0.268351 -0.56404,0.334899 -0.33505,0.06655 -0.73221,-0.272369 -0.38643,-0.329757 -0.38413,-0.680262 0.002,-0.350505 0.23129,-0.618855 0.229,-0.268351 0.56562,-0.315005 0.33662,-0.04665 0.72305,0.283103 z m -7.461956,9.843733 q -0.862013,-1.02666 -0.59725,-2.22551 0.264763,-1.19886 1.529169,-2.2605 0.648413,-0.54443 1.281229,-0.90993 0.632816,-0.365505 1.145432,-0.501105 l 0.780348,0.929395 q -0.534229,0.15375 -1.224954,0.49417 -0.701532,0.34949 -1.317525,0.8667 -0.853744,0.71683 -1.015538,1.42387 -0.161794,0.70705 0.319118,1.27981 0.317584,0.37824 0.697459,0.5015 0.379875,0.12326 0.961207,0.004 0.581331,-0.11959 1.490744,-0.44095 1.293667,-0.47816 2.226327,-0.37683 0.93266,0.10134 1.68579,0.99831 0.50814,0.60519 0.56676,1.31141 0.0586,0.70622 -0.2929,1.40674 -0.35153,0.70052 -1.08639,1.31754 -0.6268,0.52628 -1.25615,0.85202 -0.62935,0.32574 -1.235765,0.50324 l -0.396092,-1.0862 q 0.545037,-0.16282 1.120347,-0.44319 0.57532,-0.28037 1.07244,-0.69777 0.72406,-0.60794 0.82835,-1.22985 0.11337,-0.61111 -0.3131,-1.11903 -0.32666,-0.38905 -0.70653,-0.51231 -0.37988,-0.12325 -0.92879,-0.0309 -0.539835,0.10318 -1.357185,0.40251 -0.889532,0.3231 -1.599222,0.42148 -0.711423,0.11827 -1.284906,-0.082 -0.584289,-0.19115 -1.092423,-0.79634 z m -2.899439,10.38957 q -1.750045,0.9166 -2.910158,0.6481 -1.160114,-0.2685 -1.814829,-1.51853 -0.386282,-0.73752 -0.389225,-1.56431 -0.0089,-0.80775 0.569115,-1.62023 0.565511,-0.80593 1.903046,-1.50647 l 1.025026,-0.53687 -1.820108,-3.47509 1.125029,-0.58924 4.674665,8.92523 z m -0.404128,-1.01491 1.137529,-0.59579 -1.846296,-3.52509 -0.900023,0.4714 q -1.275032,0.66781 -1.683992,1.40768 -0.40896,0.73986 0.108264,1.72739 0.451754,0.86252 1.236871,0.99291 0.772617,0.13694 1.947647,-0.4785 z m -17.022799,-3.23667 5.433106,-1.47715 2.643314,9.7224 -5.433106,1.47715 -0.292468,-1.07573 4.207594,-1.14395 -0.825573,-3.03655 -3.962491,1.07732 -0.288766,-1.06211 3.962492,-1.07732 -0.944041,-3.47229 -4.207594,1.14396 z m -9.919873,0.95453 5.621588,-0.31362 0.5612,10.05969 -5.621588,0.31361 -0.06209,-1.11305 4.35356,-0.24287 -0.175277,-3.14189 -4.099955,0.22873 -0.06131,-1.09896 4.099955,-0.22873 -0.200429,-3.59274 -4.353561,0.24287 z m -13.21146,3.42243 q 0.456881,-2.51291 2.063574,-3.5403 1.590286,-1.01602 4.033782,-0.57176 l 2.762816,0.50231 -1.802283,9.91282 -3.054369,-0.55532 q -1.485535,-0.27009 -2.481363,-1.02485 -1.009712,-0.75727 -1.409814,-1.94873 -0.400103,-1.19145 -0.112343,-2.77417 z m 1.326505,0.19815 q -0.360961,1.98534 0.458169,3.08087 0.802724,1.10689 2.593695,1.43251 l 1.624369,0.29533 1.413555,-7.77476 -1.346699,-0.24484 q -4.026215,-0.73202 -4.743089,3.21089 z"
       id="text5"
       inkscape:transform-center-x="-2.0978641"
       inkscape:transform-center-y="-42.063859"
       aria-label="M.K.SPEED"
       inkscape:label="MkSpeed Text"
       transform="matrix(-0.79451901,-0.62878332,0.65741931,-0.76258055,73.897892,152.22115)" />
  </g>
  <g
     inkscape:groupmode="layer"
     id="layer4"
     inkscape:label="inner symbol"
     transform="matrix(1.1111111,0,0,1.0961835,-5.440555,-10.291636)"
     style="display:inline">
    <circle
       style="display:inline;fill:#00780a;fill-opacity:1;stroke:#ffcc0c;stroke-width:2.992;stroke-dasharray:none;stroke-opacity:1"
       id="path3"
       cx="65"
       cy="65"
       r="47.503819"
       inkscape:label="InnerYellowCircle"
       transform="matrix(0.90000002,0,0,0.91225603,4.8964995,9.3886069)" />
    <circle
       style="fill:#ffcc0c;fill-opacity:1;stroke:#8f7100;stroke-width:0.906107;stroke-miterlimit:4;stroke-dasharray:none;stroke-opacity:0.5"
       id="path7"
       cx="63.5"
       cy="93.5"
       r="13.5" />
    <rect
       style="display:inline;fill:#ffcc0c;fill-opacity:1;stroke:#8f7100;stroke-width:0.906107;stroke-miterlimit:4;stroke-dasharray:none;stroke-opacity:0.5"
       id="rect7"
       width="17"
       height="37"
       x="54.976608"
       y="56.42683"
       ry="6.6294041" />
    <ellipse
       style="fill:#ffcc0c;fill-opacity:1;stroke:none;stroke-width:0.875553;stroke-miterlimit:4;stroke-dasharray:none;stroke-opacity:0.5"
       id="circle11"
       cx="63.50045"
       cy="93.499527"
       rx="13.04486"
       ry="13.04468" />
    <circle
       style="fill:#f4ef17;fill-opacity:1;stroke:#8f7000;stroke-width:0.282084;stroke-miterlimit:4;stroke-dasharray:none;stroke-opacity:0.5"
       id="circle8"
       cx="63.498947"
       cy="93.511528"
       r="6.3469014" />
    <circle
       style="fill:#ffcc0c;fill-opacity:1;stroke:#8f7100;stroke-width:0.2;stroke-miterlimit:4;stroke-dasharray:none;stroke-opacity:0.5"
       id="path8"
       cx="63.498947"
       cy="93.511528"
       r="4.5" />
    <rect
       style="fill:#f4ef17;fill-opacity:1;stroke:#ffcc0c;stroke-width:0.906107;stroke-miterlimit:4;stroke-dasharray:none;stroke-opacity:0.5"
       id="rect9"
       width="24.830067"
       height="2.5419912"
       x="51.328106"
       y="62.002956" />
    <rect
       style="fill:#f4ef17;fill-opacity:1;stroke:#ffcc0c;stroke-width:0.906107;stroke-miterlimit:4;stroke-dasharray:none;stroke-opacity:0.5"
       id="rect10"
       width="24.830067"
       height="2.5419912"
       x="51.328106"
       y="68.278519" />
    <rect
       style="fill:#f4ef17;fill-opacity:1;stroke:#ffcc0c;stroke-width:0.906107;stroke-miterlimit:4;stroke-dasharray:none;stroke-opacity:0.5"
       id="rect11"
       width="24.830067"
       height="2.5419912"
       x="51.328106"
       y="74.795448" />
  </g>
  <g
     inkscape:groupmode="layer"
     id="layer5"
     inkscape:label="wingLeft"
     style="display:inline">
    <path
       style="opacity:1;fill:#ffca0a;fill-opacity:1;stroke:#8f7000;stroke-width:1;stroke-dasharray:none;stroke-opacity:0.5"
       d="M 55.752424,81.664203 C 48.144151,76.332176 40.536036,71.00026 41.440317,63.937517 42.344597,56.874773 51.761008,48.081965 56.531865,41.84555 c 4.770858,-6.236415 4.895579,-9.915678 3.274761,-12.138089 -1.620819,-2.222411 -5.962391,-3.209459 -9.64181,-1.40559 -3.679418,1.803869 -12.649931,9.299914 -17.198426,16.256899 -4.548495,6.956985 -6.571227,14.869122 -7.416671,19.306205 -0.845444,4.437083 -0.498936,5.341798 -0.152432,6.246504 0,0 -5.706205,2.15152 -5.706205,2.15152 0,0 5.61266,5.940065 5.61266,5.940065 0,0 5.846521,0.140316 5.846521,0.140316 0,0 0,1.028988 0,1.028988 0,0 -5.004621,-0.140317 -5.004621,-0.140317 0,0 4.864305,4.630445 4.864305,4.630445 0,0 3.367596,-0.09355 3.367596,-0.09355 0,0 0.958829,-1.005601 0.958829,-1.005601 0,0 -0.53788,1.753956 -0.53788,1.753956 0,0 -3.04019,0.09354 -3.04019,0.09354 0,0 4.162723,3.835319 4.162723,3.835319 0,0 3.507912,-0.748356 3.507912,-0.748356 0,0 1.005601,-0.865285 1.005601,-0.865285 0,0 -0.257247,1.37978 -0.257247,1.37978 0,0 -3.227279,1.028987 -3.227279,1.028987 0,0 1.520096,1.262848 1.520096,1.262848 0,0 11.669656,0.04677 11.669656,0.04677"
       id="path25"
       inkscape:path-effect="#path-effect25"
       inkscape:original-d="M 55.752424,81.664203 C 48.144151,76.332176 40.536036,71.00026 32.927606,65.668123 42.344597,56.874773 51.761008,48.081965 61.177994,39.28862 c 0.124729,-3.679485 0.24945,-7.358748 0.374179,-11.038233 -3.366366,-0.765337 -7.707938,-1.752385 -10.098895,-2.295965 -4.96788,4.151319 -13.938393,11.647363 -20.983277,17.534292 -2.052107,8.027041 -4.074838,15.939178 -6.112226,23.908647 0.3465,0.904697 1.039512,2.714118 1.039512,2.714118 l -5.706205,2.15152 5.61266,5.940065 5.846521,0.140316 v 1.028988 l -5.004621,-0.140317 4.864305,4.630445 3.367596,-0.09355 0.958829,-1.005601 -0.53788,1.753956 -3.04019,0.09354 4.162723,3.835319 3.507912,-0.748356 1.005601,-0.865285 -0.257247,1.37978 -3.227279,1.028987 1.520096,1.262848 11.669656,0.04677"
       sodipodi:nodetypes="ccccccccccccccccccccccccc" />
    <path
       style="fill:#ffca0a;fill-opacity:1;stroke:#8f7000;stroke-width:1;stroke-dasharray:none;stroke-opacity:0.5"
       d="M 55.752424,81.664203 C 48.144151,76.332176 40.536036,71.00026 41.440317,63.937517 42.344597,56.874773 51.761008,48.081965 56.531865,41.84555 c 4.770858,-6.236415 4.895579,-9.915678 3.274761,-12.138089 -1.620819,-2.222411 -5.962391,-3.209459 -9.64181,-1.40559 -3.679418,1.803869 -12.649931,9.299914 -17.198426,16.256899 -4.548495,6.956985 -6.571227,14.869122 -7.416671,19.306205 -0.845444,4.437083 -0.498936,5.341798 -0.152432,6.246504 0,0 -5.706205,2.15152 -5.706205,2.15152 0,0 5.61266,5.940065 5.61266,5.940065 0,0 5.846521,0.140316 5.846521,0.140316 0,0 0,1.028988 0,1.028988 0,0 -5.004621,-0.140317 -5.004621,-0.140317 0,0 4.864305,4.630445 4.864305,4.630445 0,0 3.367596,-0.09355 3.367596,-0.09355 0,0 0.958829,-1.005601 0.958829,-1.005601 0,0 -0.53788,1.753956 -0.53788,1.753956 0,0 -3.04019,0.09354 -3.04019,0.09354 0,0 4.162723,3.835319 4.162723,3.835319 0,0 3.507912,-0.748356 3.507912,-0.748356 0,0 1.005601,-0.865285 1.005601,-0.865285 0,0 -0.257247,1.37978 -0.257247,1.37978 0,0 -3.227279,1.028987 -3.227279,1.028987 0,0 1.520096,1.262848 1.520096,1.262848 0,0 11.669656,0.04677 11.669656,0.04677"
       id="path26"
       inkscape:path-effect="#path-effect27"
       inkscape:original-d="M 55.752424,81.664203 C 48.144151,76.332176 40.536036,71.00026 32.927606,65.668123 42.344597,56.874773 51.761008,48.081965 61.177994,39.28862 c 0.124729,-3.679485 0.24945,-7.358748 0.374179,-11.038233 -3.366366,-0.765337 -7.707938,-1.752385 -10.098895,-2.295965 -4.96788,4.151319 -13.938393,11.647363 -20.983277,17.534292 -2.052107,8.027041 -4.074838,15.939178 -6.112226,23.908647 0.3465,0.904697 1.039512,2.714118 1.039512,2.714118 l -5.706205,2.15152 5.61266,5.940065 5.846521,0.140316 v 1.028988 l -5.004621,-0.140317 4.864305,4.630445 3.367596,-0.09355 0.958829,-1.005601 -0.53788,1.753956 -3.04019,0.09354 4.162723,3.835319 3.507912,-0.748356 1.005601,-0.865285 -0.257247,1.37978 -3.227279,1.028987 1.520096,1.262848 11.669656,0.04677"
       sodipodi:nodetypes="ccccccccccccccccccccccccc"
       transform="matrix(-1,0,0,1,130.14283,-0.09921875)" />
    <circle
       style="display:inline;fill:none;fill-opacity:1;stroke:#ffcc0c;stroke-width:2.992;stroke-dasharray:none;stroke-opacity:1"
       id="circle27"
       cx="65"
       cy="65"
       r="47.503819"
       inkscape:label="InnerYellowCircle" />
  </g>
</svg>
